<?xml version="1.0" encoding="utf-8"?>
<!-- Generator: Adobe Illustrator 21.1.0, SVG Export Plug-In . SVG Version: 6.00 Build 0)  -->
<svg version="1.1"
	 id="あひる"
	 xmlns="http://www.w3.org/2000/svg" x="0px" y="0px" viewBox="0 0 1024 1024"
	 style="enable-background:new 0 0 1024 1024;" xml:space="preserve">
<style type="text/css">
	.st0{fill:#FDFD9B;}
	.st1{fill:#FF0000;}
	.st2{fill:#FFFFFF;}
	.st3{fill:none;stroke:#000000;stroke-width:3;stroke-linejoin:round;}
	.st4{fill:none;stroke:#000000;stroke-width:3;stroke-linecap:round;}
</style>
<g id="layer7">
	<path id="path3012" class="st0" d="M435.6,972.8c-72.8-4.3-180.4-18.3-227.8-29.6
		c-68.7-16.6-119.2-52.4-157.1-111.9C34.4,805.7,8.4,742.5,3.3,716.4c-3-15.8-3-42.7,0.3-55.9c8.5-36.1,25.1-61.5,89.6-136
		c62.7-72.8,79.8-94.1,82.8-104.6c4-13.5,1.3-28.6-10.8-60.2c-5.5-14-9.8-26.6-9.8-27.3c0-1,2.8-5.5,6-10.3
		c7.5-10.8,9-21.8,5.8-42.7c-3.3-21.6-1.8-67.7,3-87.3c5.5-23.8,5.5-23.6,2.3-27.3c-4.8-5.3-14-10.8-22.1-13c-4-1-8.3-2.3-9.5-2.5
		c-2.8-0.8,4-9.8,21.8-28.3C212.1,68.6,274,40,343.8,37.2c64.5-2.8,135.7,14.3,179.9,43.2c14.6,9.5,39.4,35.6,47.7,50.2
		c13.3,23.8,20.6,51.2,25.1,94.3c6.3,61.5-8.5,116.4-43.2,159.8c-14.8,18.6-40.9,43.4-60.5,57.2c-3.5,2.5-3.5,3-1.5,7
		c3.8,6.8,19.6,20.6,28.9,24.8c40.4,18.6,110.9,6.8,187.2-31.1c26.3-13,37.1-20.8,78-55.4c42.1-35.6,64.2-50.9,94.1-64
		c12-5.3,12-5.3,19.8-2.8c43.2,14.3,93.1,136,116.4,283c7.5,47.2,8.5,64.5,6,85c-15.8,119.9-89.3,206-210.7,246.4
		C765,950.2,689,963.8,612.5,970.8C578.6,973.8,473,975,435.6,972.8L435.6,972.8L435.6,972.8z M323.7,221.4
		c10.8-5.5,19.1-14.6,24.6-26.6c6.3-13.5,6-31.6-0.5-45.9c-18.8-41.6-76.3-42.1-95.6-0.8c-7,15.1-6.8,35.1,0.8,50.2
		c3.5,7.3,15.1,19.1,22.1,22.6C290.3,228.7,309.2,228.9,323.7,221.4L323.7,221.4z"/>
</g>
<g id="くちばし">
	<path id="path2991" class="st1" d="M137.6,322.3C104,305,79.4,287.4,57.1,264.1
		C48.8,255.6,39,244,34.8,238c-20.6-29.6-29.6-62.7-21.8-79.5c4.5-9.3,5.3-9.3,20.6-1.8c38.4,19.3,74.5,20.6,96.6,3.3l6.3-5l9,2
		c10,2.3,18.6,6,22.3,10.5l2.5,2.8l-2.8,14c-6.8,33.9-8.3,74.8-3.5,103.9c2.5,15.8,1.5,23.6-4,33.4c-2.5,4.3-5.3,7.8-6,7.8
		C153.2,329.8,145.9,326.6,137.6,322.3L137.6,322.3L137.6,322.3z"/>
</g>
<g id="目輪郭">
	
		<path id="path3017" d="
		M351.2,173.2c0,29.6-23.3,53.7-51.9,53.7c-28.6,0-51.9-24.1-51.9-53.7l0,0c0-29.6,23.3-53.7,51.9-53.7
		C327.9,119.5,351.2,143.3,351.2,173.2z"/>
</g>
<g id="白目">
	
		<path id="path3020" class="st2" d="
		M342.3,172c0,24.8-19.3,44.9-42.9,44.9c-23.8,0-42.9-20.1-43.2-44.7l0,0c0-24.8,19.3-44.9,42.9-44.9
		C322.8,127.3,342.3,147.2,342.3,172L342.3,172z"/>
</g>
<g id="輪郭">
	<g id="layer3">
		<path id="path3010" class="st3" d="M131.6,154
			c50.4,3.5,41.1,33.6,41.1,16.1c-10.8,44.9-13.5,78.8-5.3,123.7c-2,9.8,4,13.8-15.3,36.4"/>
	</g>
	
		<g id="layer1" transform="translate(0,-540.36218)">
		<path id="path3007" class="st4" d="M135.1,690.7
			c108.9-145,253.6-110.9,253.6-114.2c132.7,14.3,193.7,69,207,155.5c20.1,112.9-10.5,187.4-100.4,252.6
			c41.6,67,178.6,13,234.8-21.6c51.9-36.4,85.8-82,155.8-109.4c77-0.3,135,262.2,138,354.2c-18.8,221-215,263.4-233.8,270.2
			c-211.5,53.4-421.7,32.6-566.7,5.3C55.6,1452.9,22.2,1308.8,4.9,1262.2c-26.1-107.6,54.9-154.3,164.3-293.8
			c19.8-26.1-7.3-65.5-17.8-100.4C4.2,805.3-13.1,694.7,24.7,688.4C22.7,692.2,102,735.1,135.1,690.7L135.1,690.7z"/>
	</g>
</g>
</svg>
